# xmcd
#
# Track frame offsets:
#	150
#	13844
#	34736
#	49378
#	61024
#	77907
#	92073
#	108006
#	123323
#	140580
#	155711
#	174847
#
# Disc length: 2545 seconds
#
# Revision: 1
# Processed by: cddbd v1.5.2PL0 Copyright (c) Steve Scherf et al.
# Submitted via: audiograbber 1.83.01
#
DISCID=9709ef0c
DTITLE=Razzy Bailey - Damned Good Time
DYEAR=2009
DGENRE=Crossover
TTITLE0=I'm A Damned Good Time
TTITLE1=My 'Ol Mule
TTITLE2=The Right Place Now
TTITLE3=Blue Monday (Razzy Bailey and Mickey Gilley)
TTITLE4=If I Can't Hold You
TTITLE5=The Seventies
TTITLE6=Long Black Veil (Razzy Bailey and Johnny Cash)
TTITLE7=Hank Wrote That
TTITLE8=Heart Of Stone ( Razzy Bailey and Jennifer Brantley)
TTITLE9=She Left Love All Over Me
TTITLE10=Whiskey California
TTITLE11=Hit It !
EXTD=SOA Records
EXTT0=BMI
EXTT1=BMI
EXTT2=BMI
EXTT3=BMI
EXTT4=BMI
EXTT5=BMI
EXTT6=BMI
EXTT7=BMI
EXTT8=BMI
EXTT9=BMI
EXTT10=BMI
EXTT11=BMI
PLAYORDER=
